<?xml version="1.0" standalone="no"?>
<!DOCTYPE svg PUBLIC "-//W3C//DTD SVG 20010904//EN"
 "http://www.w3.org/TR/2001/REC-SVG-20010904/DTD/svg10.dtd">
<svg version="1.0" xmlns="http://www.w3.org/2000/svg"
 width="96.000000pt" height="96.000000pt" viewBox="0 0 96.000000 96.000000"
 preserveAspectRatio="xMidYMid meet">

<g transform="translate(0.000000,96.000000) scale(0.100000,-0.100000)"
fill="#000000" stroke="none">
<path d="M1 803 l0 -158 24 52 c37 82 147 184 241 223 76 31 76 31 232 28 150
-3 160 -4 214 -32 116 -59 192 -157 217 -281 15 -75 20 -258 9 -348 -15 -131
-89 -216 -212 -246 -157 -37 -155 -39 47 -40 l187 -1 0 480 0 480 -480 0 -480
0 1 -157z"/>
<path d="M484 911 c4 -6 14 -11 22 -11 9 0 12 -5 8 -12 -5 -8 -2 -9 10 -5 10
4 34 7 54 7 52 1 22 17 -48 26 -39 5 -51 4 -46 -5z"/>
<path d="M238 840 c-25 -16 -55 -41 -65 -55 -10 -14 -29 -40 -43 -58 -14 -17
-26 -45 -26 -61 -1 -17 -5 -41 -9 -53 -5 -15 -3 -23 4 -23 6 0 11 6 11 14 0 8
5 27 12 43 6 15 10 33 9 40 -1 6 4 15 10 19 8 5 9 3 4 -6 -5 -9 -4 -11 4 -6 6
4 9 11 7 15 -5 8 93 106 106 106 4 0 8 5 9 10 1 6 5 18 10 28 12 22 13 22 -43
-13z"/>
<path d="M709 840 c13 -11 27 -20 32 -20 18 0 8 10 -23 25 l-33 16 24 -21z"/>
<path d="M770 805 c0 -16 22 -46 42 -56 l21 -11 -22 31 c-22 31 -41 47 -41 36z"/>
<path d="M400 786 c-90 -24 -173 -96 -213 -185 -33 -72 -30 -189 6 -263 39
-80 111 -142 194 -168 82 -25 114 -25 199 1 56 17 77 31 125 78 49 49 61 69
79 130 36 117 13 223 -66 310 -47 53 -104 86 -172 100 -65 14 -94 13 -152 -3z
m65 -86 c3 -5 -3 -10 -14 -10 -12 0 -21 5 -21 10 0 6 6 10 14 10 8 0 18 -4 21
-10z m68 -46 c-7 -19 -10 -18 -16 5 -3 13 -1 18 9 14 7 -2 10 -11 7 -19z m147
4 c0 -5 -9 -4 -20 2 -11 6 -20 12 -20 14 0 2 9 2 20 -1 11 -3 20 -9 20 -15z
m-86 -23 c-4 -8 -9 -15 -13 -15 -4 0 -8 7 -8 15 0 8 6 15 13 15 8 0 11 -6 8
-15z m31 -23 c-3 -3 -11 0 -18 7 -9 10 -8 11 6 5 10 -3 15 -9 12 -12z m-200
-80 c0 -18 -20 -15 -23 4 -3 10 1 15 10 12 7 -3 13 -10 13 -16z m15 -52 c0 -5
-7 -10 -15 -10 -8 0 -15 5 -15 10 0 6 7 10 15 10 8 0 15 -4 15 -10z m186 -16
c-3 -9 -6 -18 -6 -20 0 -2 -6 -4 -14 -4 -8 0 -18 -9 -21 -20 -7 -21 -25 -28
-25 -10 0 6 4 10 9 10 5 0 11 10 13 23 2 12 9 21 16 20 6 -2 12 2 12 7 0 6 5
10 11 10 6 0 8 -7 5 -16z"/>
<path d="M841 710 c0 -3 6 -25 13 -50 8 -25 15 -36 15 -25 0 17 -26 88 -28 75z"/>
<path d="M860 545 c-6 -8 -13 -37 -14 -64 -1 -27 2 -44 6 -38 5 7 8 3 8 -11 0
-13 -4 -21 -9 -18 -5 4 -7 -2 -5 -12 3 -9 1 -36 -4 -60 -10 -43 -4 -53 18 -27
7 9 10 25 6 41 -4 15 -2 32 5 40 10 13 15 152 5 161 -2 2 -9 -3 -16 -12z"/>
<path d="M74 393 c7 -95 29 -147 69 -159 29 -8 65 -42 83 -76 10 -19 22 -28
39 -28 13 0 48 -9 76 -20 34 -14 62 -19 81 -15 20 5 35 2 47 -9 11 -10 25 -14
35 -10 14 5 12 10 -14 25 -17 11 -40 19 -52 19 -12 0 -48 5 -80 12 -47 10 -60
16 -64 35 -4 15 -13 22 -27 20 -13 -1 -25 7 -32 21 -7 12 -32 33 -56 45 -37
18 -45 28 -53 62 -19 87 -33 129 -44 133 -8 2 -10 -14 -8 -55z"/>
<path d="M799 248 c-14 -14 -34 -37 -44 -52 -25 -38 -88 -67 -158 -74 -37 -3
-61 -10 -64 -19 -8 -21 -1 -23 42 -12 22 6 57 15 79 20 21 5 48 16 60 24 11 8
28 15 38 15 19 0 80 86 76 107 -2 12 -9 10 -29 -9z"/>
<path d="M0 123 l0 -123 148 0 147 0 -55 32 c-30 17 -97 72 -147 122 l-93 91
0 -122z"/>
</g>
</svg>
